<svg viewBox="0 0 256 256" xml:space="preserve" xmlns="http://www.w3.org/2000/svg"><path d="m184.412 171.898 16.053-22.233a3.735 3.735 0 0 0-6.057-4.372l-16.082 22.276c-.21.292-.355.605-.471.927-14.803-7.064-31.592-11.071-49.403-11.071-17.498 0-34.003 3.871-48.614 10.703a3.47 3.47 0 0 0-.325-.559l-16.082-22.276a3.738 3.738 0 0 0-5.214-.844 3.736 3.736 0 0 0-.842 5.216l15.777 21.852c-30.483 16.861-51.209 47.233-52.489 82.169h215.575c-1.271-34.681-21.709-64.853-51.826-81.788z" fill="#2965aa" class="fill-fb6e52"></path><path d="M76.318 182.549a1.542 1.542 0 0 1-.769-2.881 101.79 101.79 0 0 1 6.52-3.429 1.543 1.543 0 1 1 1.336 2.782 97.613 97.613 0 0 0-6.32 3.324 1.571 1.571 0 0 1-.767.204zM40.85 218.337a1.541 1.541 0 0 1-1.353-2.28c6.968-12.798 17.293-24.045 29.862-32.53.705-.479 1.666-.292 2.142.414s.29 1.665-.416 2.143c-12.16 8.208-22.145 19.084-28.878 31.447-.281.515-.81.806-1.357.806z" fill="#F1F2F2" class="fill-f1f2f2"></path><path d="M162.998 205.369c0 20.411-10.766 38.299-26.924 48.316h100.164c-1.271-34.681-21.709-64.853-51.826-81.787l16.053-22.233a3.735 3.735 0 0 0-6.057-4.372l-16.082 22.276c-.21.292-.355.605-.471.927-12.363-5.901-26.116-9.657-40.689-10.74 15.547 10.139 25.832 27.669 25.832 47.613z" fill="#0e2b4d" class="fill-db5242"></path><path d="M236.238 256H20.664a2.319 2.319 0 0 1-1.666-.709 2.306 2.306 0 0 1-.646-1.69c1.245-33.958 20.407-64.736 51.415-82.823l-14.268-19.76a6.057 6.057 0 0 1 1.364-8.444 6.035 6.035 0 0 1 3.54-1.143c1.94 0 3.773.938 4.906 2.509l15.355 21.267c14.984-6.699 31.052-10.095 47.789-10.095 17.022 0 33.327 3.5 48.497 10.409l15.583-21.582a6.064 6.064 0 0 1 4.903-2.508c1.276 0 2.5.396 3.538 1.144a5.997 5.997 0 0 1 2.433 3.939 5.995 5.995 0 0 1-1.066 4.504l-14.552 20.157c30.61 18.139 49.529 48.77 50.763 82.426a2.309 2.309 0 0 1-.646 1.69 2.322 2.322 0 0 1-1.668.709zm-213.143-4.628h210.711c-2.016-31.897-20.764-60.72-50.528-77.457a2.316 2.316 0 0 1-.741-3.373l16.051-22.233c.223-.309.313-.683.251-1.058a1.422 1.422 0 0 0-2.553-.605l-16.083 22.275a1.543 1.543 0 0 0-.17.356 2.307 2.307 0 0 1-1.297 1.356 2.302 2.302 0 0 1-1.876-.051c-15.08-7.197-31.366-10.846-48.407-10.846-16.729 0-32.756 3.527-47.634 10.486a2.316 2.316 0 0 1-3.065-1.094c-.033-.068-.064-.139-.11-.201l-16.088-22.283a1.427 1.427 0 0 0-1.988-.319 1.423 1.423 0 0 0-.316 1.981l15.777 21.853a2.315 2.315 0 0 1-.756 3.378c-30.159 16.687-49.148 45.649-51.178 77.835z" fill="#000000" class="fill-594a42"></path><path d="M111.871 220.188a3.84 3.84 0 0 1-1.456-.286l-43.19-17.617a3.855 3.855 0 1 1 2.913-7.141l43.191 17.616a3.858 3.858 0 0 1-1.458 7.428z" fill="#000000" class="fill-594a42"></path><path d="M104.2 221.874c0 6.199-5.026 11.223-11.224 11.223-6.199 0-11.224-5.023-11.224-11.223 0-6.201 5.025-11.226 11.224-11.226 6.198 0 11.224 5.025 11.224 11.226zM142.725 220.188a3.857 3.857 0 0 1-1.459-7.428l43.191-17.616a3.857 3.857 0 0 1 2.913 7.141l-43.19 17.617a3.824 3.824 0 0 1-1.455.286z" fill="#000000" class="fill-594a42"></path><path d="M150.395 221.874c0 6.199 5.025 11.223 11.225 11.223 6.198 0 11.223-5.023 11.223-11.223 0-6.201-5.024-11.226-11.223-11.226-6.2 0-11.225 5.025-11.225 11.226z" fill="#000000" class="fill-594a42"></path></svg>