<svg viewBox="0 0 256 256" xml:space="preserve" xmlns="http://www.w3.org/2000/svg"><path d="m184.307 171.9 16.052-22.232a3.736 3.736 0 0 0-6.058-4.371l-16.083 22.275a3.805 3.805 0 0 0-.47.925c-14.801-7.064-31.591-11.071-49.403-11.071-17.498 0-34.002 3.874-48.613 10.707a3.746 3.746 0 0 0-.325-.563l-16.083-22.274a3.733 3.733 0 0 0-5.211-.842 3.731 3.731 0 0 0-.844 5.212l15.777 21.854c-30.483 16.861-51.208 47.23-52.488 82.167h215.574c-1.272-34.679-21.71-64.852-51.825-81.787z" fill="#2965aa" class="fill-b6d152"></path><path d="M76.211 182.551a1.542 1.542 0 0 1-.769-2.88 101.938 101.938 0 0 1 6.519-3.43 1.54 1.54 0 0 1 2.059.721 1.54 1.54 0 0 1-.721 2.058 100.435 100.435 0 0 0-6.322 3.327 1.546 1.546 0 0 1-.766.204zM40.743 218.338a1.542 1.542 0 0 1-1.352-2.281c6.963-12.793 17.291-24.04 29.861-32.53a1.543 1.543 0 1 1 1.726 2.557c-12.162 8.213-22.148 19.089-28.878 31.448-.28.515-.81.806-1.357.806z" fill="#F1F2F2" class="fill-f1f2f2"></path><path d="M162.892 205.374c0 20.407-10.767 38.294-26.924 48.313h100.164c-1.271-34.679-21.71-64.852-51.825-81.786l16.052-22.232a3.736 3.736 0 0 0-6.058-4.371l-16.083 22.275a3.805 3.805 0 0 0-.47.925c-12.363-5.898-26.114-9.657-40.688-10.737 15.547 10.135 25.832 27.669 25.832 47.613z" fill="#0e2b4d" class="fill-9fb543"></path><path d="M236.132 256H20.558a2.317 2.317 0 0 1-2.313-2.398c1.246-33.957 20.407-64.734 51.415-82.819L55.393 151.02a5.999 5.999 0 0 1-1.066-4.504 5.997 5.997 0 0 1 2.433-3.939 6.019 6.019 0 0 1 3.535-1.144c1.94 0 3.774.938 4.908 2.509l15.354 21.27c14.989-6.703 31.055-10.099 47.788-10.099 17.023 0 33.33 3.501 48.5 10.411l15.58-21.582a6.074 6.074 0 0 1 4.907-2.508c1.273 0 2.497.395 3.533 1.141a6.014 6.014 0 0 1 2.437 3.943 6.014 6.014 0 0 1-1.067 4.506l-14.552 20.154c30.609 18.139 49.528 48.769 50.761 82.424a2.316 2.316 0 0 1-.646 1.691 2.323 2.323 0 0 1-1.666.707zm-213.143-4.627H233.7c-2.017-31.896-20.764-60.719-50.529-77.455a2.322 2.322 0 0 1-1.124-1.521 2.306 2.306 0 0 1 .385-1.852l16.052-22.232c.221-.308.31-.685.249-1.058a1.414 1.414 0 0 0-1.4-1.195 1.41 1.41 0 0 0-1.156.589l-16.082 22.277a1.612 1.612 0 0 0-.169.354 2.312 2.312 0 0 1-3.173 1.304c-15.077-7.197-31.365-10.846-48.407-10.846-16.725 0-32.751 3.528-47.634 10.488a2.314 2.314 0 0 1-3.069-1.101 1.237 1.237 0 0 0-.116-.21l-16.078-22.27a1.416 1.416 0 0 0-1.983-.317c-.307.22-.509.548-.569.923-.062.374.027.75.248 1.056l15.778 21.856a2.314 2.314 0 0 1-.755 3.379c-30.161 16.685-49.15 45.646-51.179 77.831z" fill="#000000" class="fill-594a42"></path><g fill="#000000" class="fill-594a42"><path d="M116.009 225.346c2.631 7.017 7.145 14.484 12.146 14.473 5.002.014 9.515-7.456 12.147-14.473-7.896-4.733-16.399-4.733-24.293 0z"></path><path d="M128.171 242.133c-.001 0-.001 0 0 0h-.021c-7.508 0-12.506-11.172-14.309-15.975a2.31 2.31 0 0 1 .977-2.797c8.588-5.146 18.086-5.147 26.673 0a2.31 2.31 0 0 1 .978 2.797c-1.802 4.803-6.805 15.975-14.298 15.975zm-9.261-15.744c2.824 6.724 6.432 11.116 9.233 11.116h.026c2.801 0 6.404-4.394 9.229-11.116-6.053-3.026-12.431-3.026-18.488 0z"></path></g><path d="M110.04 195.006a7.317 7.317 0 0 0-10.347-.001l-4.366 2.594-4.367-2.594a7.316 7.316 0 1 0-10.346 10.346s12.769 11.515 14.711 11.458c1.943.058 14.715-11.458 14.715-11.458a7.316 7.316 0 0 0 0-10.345z" fill="#ff0000" class="fill-dd5a4b"></path><path d="M95.354 219.123c-.034.002-.07 0-.096-.001h-.026c-.824 0-2.934-.118-16.168-12.054-3.841-3.837-3.841-9.945-.086-13.699a9.562 9.562 0 0 1 6.81-2.821c2.469 0 4.796.923 6.586 2.605l2.953 1.754 2.952-1.754a9.56 9.56 0 0 1 6.588-2.604 9.575 9.575 0 0 1 6.81 2.82c3.753 3.754 3.753 9.863 0 13.617-13.381 12.07-15.451 12.137-16.323 12.137zm-9.566-23.947a4.97 4.97 0 0 0-3.537 1.465 5.008 5.008 0 0 0 0 7.074c4.899 4.414 11.031 9.514 13.074 10.646 2.045-1.134 8.185-6.238 13.164-10.729 1.863-1.868 1.863-5.04-.085-6.99-1.89-1.89-5.185-1.89-7.074-.001a2.29 2.29 0 0 1-.455.354l-4.367 2.594a2.313 2.313 0 0 1-2.361 0l-4.367-2.594a2.324 2.324 0 0 1-.456-.354 4.967 4.967 0 0 0-3.536-1.465z" fill="#000000" class="fill-594a42"></path><path d="M175.275 193.496a7.318 7.318 0 0 0-10.347-.002l-4.367 2.594-4.368-2.594a7.315 7.315 0 0 0-10.344 10.346s12.768 11.515 14.711 11.459c1.944.057 14.715-11.459 14.715-11.459a7.313 7.313 0 0 0 0-10.344z" fill="#ff0000" class="fill-dd5a4b"></path><path d="M160.589 217.612c-.034-.001-.07.001-.098-.001-.875-.017-2.837-.01-16.192-12.053-1.906-1.9-2.906-4.319-2.906-6.891s1-4.992 2.821-6.81a9.564 9.564 0 0 1 6.808-2.821c2.47 0 4.798.924 6.587 2.605l2.953 1.755 2.954-1.755a9.553 9.553 0 0 1 6.585-2.604 9.566 9.566 0 0 1 6.81 2.82c3.756 3.754 3.756 9.863 0 13.617-13.38 12.071-15.453 12.138-16.322 12.138zm-9.568-23.946a4.96 4.96 0 0 0-3.535 1.465c-.945.945-1.467 2.201-1.467 3.537s.521 2.591 1.467 3.536c4.898 4.414 11.032 9.513 13.075 10.647 2.045-1.135 8.184-6.238 13.164-10.729 1.862-1.869 1.862-5.042-.087-6.992-1.893-1.889-5.186-1.89-7.073 0a2.242 2.242 0 0 1-.456.353l-4.367 2.595a2.314 2.314 0 0 1-2.362 0l-4.366-2.595a2.253 2.253 0 0 1-.457-.354 4.97 4.97 0 0 0-3.536-1.463z" fill="#000000" class="fill-594a42"></path></svg>