<svg viewBox="0 0 256 256" xml:space="preserve" xmlns="http://www.w3.org/2000/svg"><path d="m183.548 171.9 16.052-22.233a3.735 3.735 0 0 0-6.059-4.371l-16.082 22.276c-.207.29-.353.604-.47.925-14.802-7.064-31.592-11.071-49.403-11.071-17.498 0-34.003 3.874-48.614 10.706a3.73 3.73 0 0 0-.326-.563l-16.083-22.275a3.735 3.735 0 0 0-6.055 4.371l15.778 21.854c-30.483 16.862-51.208 47.232-52.488 82.168h215.575c-1.27-34.679-21.709-64.852-51.825-81.787z" fill="#2965aa" class="fill-b6d152"></path><path d="M75.452 182.55a1.542 1.542 0 0 1-.769-2.88 102.286 102.286 0 0 1 6.519-3.43 1.544 1.544 0 0 1 1.338 2.781 98.196 98.196 0 0 0-6.322 3.327 1.554 1.554 0 0 1-.766.202zM39.983 218.339a1.543 1.543 0 0 1-1.352-2.282c6.965-12.793 17.292-24.043 29.861-32.529a1.543 1.543 0 1 1 1.727 2.556c-12.162 8.213-22.148 19.088-28.878 31.45a1.546 1.546 0 0 1-1.358.805z" fill="#F1F2F2" class="fill-f1f2f2"></path><path d="M162.134 205.372c0 20.41-10.769 38.297-26.926 48.314h100.165c-1.271-34.679-21.709-64.852-51.825-81.786l16.052-22.233a3.735 3.735 0 0 0-6.059-4.371l-16.082 22.276c-.207.29-.353.604-.47.925-12.364-5.898-26.114-9.657-40.688-10.738 15.547 10.137 25.833 27.67 25.833 47.613z" fill="#0e2b4d" class="fill-9fb543"></path><path d="M235.373 256H19.798a2.316 2.316 0 0 1-2.313-2.399c1.245-33.957 20.407-64.734 51.415-82.819L54.633 151.02c-.945-1.31-1.324-2.909-1.066-4.504s1.122-2.995 2.433-3.94a6.024 6.024 0 0 1 3.537-1.143c1.939 0 3.773.938 4.906 2.508l15.354 21.27c14.987-6.701 31.054-10.098 47.79-10.098 17.023 0 33.329 3.502 48.499 10.411l15.58-21.583a6.074 6.074 0 0 1 4.907-2.508 6.02 6.02 0 0 1 3.536 1.143 6.056 6.056 0 0 1 1.368 8.445l-14.553 20.156c30.609 18.139 49.528 48.77 50.762 82.424a2.31 2.31 0 0 1-2.313 2.399zM22.23 251.372h210.711c-2.016-31.895-20.764-60.717-50.527-77.455a2.31 2.31 0 0 1-1.125-1.52 2.309 2.309 0 0 1 .383-1.852l16.052-22.233a1.423 1.423 0 0 0-1.151-2.253c-.463 0-.885.217-1.155.591l-16.082 22.275c-.052.073-.11.195-.172.364a2.31 2.31 0 0 1-3.171 1.296c-15.078-7.196-31.364-10.846-48.406-10.846-16.727 0-32.753 3.528-47.634 10.488a2.316 2.316 0 0 1-3.067-1.099c-.033-.068-.067-.14-.114-.205l-16.083-22.276a1.405 1.405 0 0 0-1.152-.589c-.208 0-.522.049-.833.271-.305.22-.508.549-.568.923-.061.374.027.75.25 1.057l15.777 21.854a2.312 2.312 0 0 1-.756 3.378c-30.159 16.685-49.149 45.646-51.177 77.831z" fill="#000000" class="fill-594a42"></path><circle cx="88.041" cy="203.364" fill="#000000" r="10.276" class="fill-594a42"></circle><circle cx="165.29" cy="203.364" fill="#000000" r="10.276" class="fill-594a42"></circle><path d="M127.573 238.063a12.58 12.58 0 0 1-4.145-.704 12.497 12.497 0 0 1-7.196-6.408 12.626 12.626 0 0 1-.727-1.861 2.313 2.313 0 1 1 4.427-1.347c.128.42.283.819.462 1.186a7.918 7.918 0 0 0 4.554 4.061 7.904 7.904 0 0 0 6.083-.354 7.977 7.977 0 0 0 4.195-4.996 2.315 2.315 0 0 1 2.859-1.594 2.317 2.317 0 0 1 1.593 2.859 12.61 12.61 0 0 1-6.633 7.896 12.53 12.53 0 0 1-5.472 1.262z" fill="#000000" class="fill-594a42"></path></svg>