<svg viewBox="0 0 256 256" xml:space="preserve" xmlns="http://www.w3.org/2000/svg"><path d="m183.938 171.899 16.052-22.233a3.737 3.737 0 0 0-6.06-4.372l-16.081 22.276c-.208.29-.353.604-.47.927-14.802-7.065-31.592-11.072-49.403-11.072-17.498 0-34.004 3.873-48.615 10.705a3.531 3.531 0 0 0-.325-.561l-16.082-22.275a3.733 3.733 0 1 0-6.055 4.369l15.778 21.854c-30.483 16.863-51.208 47.232-52.488 82.169h215.575c-1.272-34.679-21.711-64.852-51.826-81.787z" fill="#2965aa" class="fill-b6d152"></path><path d="M75.841 182.55a1.544 1.544 0 0 1-.769-2.881 103.595 103.595 0 0 1 6.519-3.43 1.543 1.543 0 1 1 1.338 2.781 99.172 99.172 0 0 0-6.321 3.326 1.56 1.56 0 0 1-.767.204zM40.374 218.337a1.542 1.542 0 0 1-1.354-2.28c6.966-12.795 17.292-24.043 29.862-32.531a1.541 1.541 0 1 1 1.725 2.557c-12.162 8.213-22.148 19.088-28.877 31.449-.28.514-.81.805-1.356.805z" fill="#F1F2F2" class="fill-f1f2f2"></path><path d="M162.522 205.372c0 20.408-10.767 38.297-26.925 48.313h100.165c-1.271-34.679-21.71-64.852-51.825-81.786l16.052-22.233a3.737 3.737 0 0 0-6.06-4.372l-16.081 22.276c-.208.29-.353.604-.47.927-12.364-5.9-26.114-9.658-40.688-10.738 15.547 10.136 25.832 27.668 25.832 47.613z" fill="#0e2b4d" class="fill-9fb543"></path><path d="M235.763 256H20.188a2.316 2.316 0 0 1-2.312-2.399c1.245-33.957 20.406-64.734 51.414-82.82l-14.268-19.762a6.007 6.007 0 0 1-1.066-4.505 6.01 6.01 0 0 1 2.433-3.94 6.025 6.025 0 0 1 3.537-1.142c1.939 0 3.773.938 4.906 2.508l15.355 21.27c14.987-6.701 31.054-10.099 47.79-10.099 17.022 0 33.329 3.502 48.499 10.411l15.58-21.582a6.073 6.073 0 0 1 4.906-2.508 6.03 6.03 0 0 1 3.537 1.142c2.705 1.953 3.318 5.742 1.369 8.445l-14.554 20.158c30.608 18.138 49.528 48.77 50.762 82.424a2.316 2.316 0 0 1-2.313 2.399zM22.62 251.372h210.711c-2.017-31.896-20.763-60.719-50.528-77.455a2.32 2.32 0 0 1-.742-3.372l16.053-22.233a1.423 1.423 0 0 0-2.307-1.662l-16.081 22.275c-.052.072-.11.195-.172.365a2.313 2.313 0 0 1-3.17 1.295c-15.079-7.197-31.365-10.847-48.407-10.847-16.727 0-32.753 3.528-47.634 10.489a2.317 2.317 0 0 1-3.067-1.098c-.034-.069-.067-.141-.114-.206l-16.083-22.276a1.401 1.401 0 0 0-1.152-.588 1.421 1.421 0 0 0-1.151 2.251l15.778 21.854a2.312 2.312 0 0 1-.756 3.379c-30.161 16.683-49.15 45.644-51.178 77.829z" fill="#000000" class="fill-594a42"></path><circle cx="88.43" cy="203.363" fill="#000000" r="10.277" class="fill-594a42"></circle><circle cx="165.68" cy="203.363" fill="#000000" r="10.277" class="fill-594a42"></circle></svg>