<svg viewBox="0 0 256 256" xml:space="preserve" xmlns="http://www.w3.org/2000/svg"><path d="m184.117 171.899 16.052-22.236a3.734 3.734 0 0 0-.844-5.211 3.734 3.734 0 0 0-5.214.841l-16.082 22.276a3.828 3.828 0 0 0-.471.928c-14.802-7.064-31.592-11.072-49.403-11.072-17.497 0-34.004 3.871-48.613 10.705a3.678 3.678 0 0 0-.325-.561l-16.082-22.276a3.738 3.738 0 0 0-5.213-.845 3.735 3.735 0 0 0-.843 5.215l15.777 21.852c-30.483 16.863-51.209 47.235-52.488 82.171h215.575c-1.272-34.681-21.711-64.853-51.826-81.787z" fill="#2965aa" class="fill-b6d152"></path><path d="M76.021 182.548a1.54 1.54 0 0 1-.768-2.88 103.116 103.116 0 0 1 6.519-3.429 1.543 1.543 0 1 1 1.338 2.781 99.05 99.05 0 0 0-6.323 3.325 1.54 1.54 0 0 1-.766.203zM40.554 218.337a1.545 1.545 0 0 1-1.354-2.28c6.967-12.796 17.294-24.045 29.861-32.531a1.544 1.544 0 0 1 1.728 2.557c-12.16 8.211-22.148 19.086-28.88 31.449a1.539 1.539 0 0 1-1.355.805z" fill="#F1F2F2" class="fill-f1f2f2"></path><path d="M162.703 205.37c0 20.41-10.768 38.299-26.926 48.315h100.166c-1.272-34.681-21.711-64.853-51.826-81.786l16.052-22.236a3.734 3.734 0 0 0-.844-5.211 3.734 3.734 0 0 0-5.214.841l-16.082 22.276a3.828 3.828 0 0 0-.471.928c-12.363-5.902-26.114-9.659-40.687-10.741 15.546 10.138 25.832 27.669 25.832 47.614z" fill="#0e2b4d" class="fill-9fb543"></path><path d="M235.943 256H20.368a2.318 2.318 0 0 1-1.667-.708 2.328 2.328 0 0 1-.646-1.691c1.244-33.959 20.405-64.736 51.413-82.822l-14.266-19.76a6.056 6.056 0 0 1 1.365-8.445 6.031 6.031 0 0 1 3.538-1.143c1.938 0 3.773.938 4.905 2.509l15.355 21.269c14.983-6.701 31.051-10.098 47.788-10.098 17.023 0 33.327 3.502 48.499 10.411l15.581-21.583a6.069 6.069 0 0 1 4.905-2.508c1.275 0 2.498.396 3.538 1.144a6.017 6.017 0 0 1 2.434 3.939 6.012 6.012 0 0 1-1.066 4.504l-14.553 20.157c30.61 18.139 49.529 48.77 50.763 82.426a2.328 2.328 0 0 1-.646 1.691 2.307 2.307 0 0 1-1.665.708zm-213.144-4.628h210.713c-2.017-31.896-20.765-60.719-50.529-77.457a2.317 2.317 0 0 1-.74-3.372l16.052-22.234a1.41 1.41 0 0 0 .249-1.058 1.426 1.426 0 0 0-1.402-1.194c-.462 0-.883.214-1.154.589l-16.081 22.275a1.653 1.653 0 0 0-.173.365 2.315 2.315 0 0 1-3.171 1.297c-15.076-7.197-31.363-10.847-48.406-10.847-16.728 0-32.754 3.528-47.633 10.487a2.312 2.312 0 0 1-3.066-1.096c-.032-.066-.063-.137-.109-.199l-16.088-22.284a1.422 1.422 0 0 0-1.986-.317 1.418 1.418 0 0 0-.316 1.98l15.776 21.852a2.31 2.31 0 0 1 .382 1.86 2.321 2.321 0 0 1-1.137 1.519c-30.162 16.686-49.152 45.649-51.181 77.834z" fill="#000000" class="fill-594a42"></path><path d="M165.86 215.954c-6.942 0-12.59-5.648-12.59-12.59 0-.664.053-1.335.157-1.996a2.313 2.313 0 0 1 4.571.724 8.29 8.29 0 0 0-.102 1.271c0 4.389 3.572 7.963 7.963 7.963a7.98 7.98 0 0 0 5.952-2.673 2.314 2.314 0 0 1 3.455 3.078 12.6 12.6 0 0 1-9.406 4.223zM89.223 215.954c-3.591 0-7.02-1.539-9.408-4.223a2.311 2.311 0 0 1 .19-3.266 2.31 2.31 0 0 1 3.265.188 7.984 7.984 0 0 0 5.953 2.673c4.39 0 7.963-3.574 7.963-7.963 0-.42-.036-.849-.102-1.271a2.312 2.312 0 0 1 1.921-2.646 2.31 2.31 0 0 1 2.649 1.922c.105.661.158 1.332.158 1.996.001 6.942-5.648 12.59-12.589 12.59zM137.378 233.368a2.316 2.316 0 0 1-2.224-1.684 7.963 7.963 0 0 0-4.191-4.993c-3.951-1.914-8.726-.255-10.636 3.698a8.22 8.22 0 0 0-.461 1.181 2.314 2.314 0 0 1-4.434-1.322c.189-.633.435-1.263.726-1.872 3.026-6.249 10.568-8.876 16.818-5.851a12.592 12.592 0 0 1 6.631 7.898 2.314 2.314 0 0 1-2.229 2.945z" fill="#000000" class="fill-594a42"></path></svg>